<svg width="27" height="27" viewBox="0 0 27 27" fill="none" xmlns="http://www.w3.org/2000/svg">
<path d="M16.5833 7.91669H15.25C14.8818 7.91669 14.5833 8.21516 14.5833 8.58335V17.9167C14.5833 18.2849 14.8818 18.5834 15.25 18.5834H16.5833C16.9515 18.5834 17.25 18.2849 17.25 17.9167V8.58335C17.25 8.21516 16.9515 7.91669 16.5833 7.91669Z" stroke="#9CA3AF" stroke-width="1.33333" stroke-linecap="round" stroke-linejoin="round"/>
<path d="M11.25 7.91669H9.91667C9.54848 7.91669 9.25 8.21516 9.25 8.58335V17.9167C9.25 18.2849 9.54848 18.5834 9.91667 18.5834H11.25C11.6182 18.5834 11.9167 18.2849 11.9167 17.9167V8.58335C11.9167 8.21516 11.6182 7.91669 11.25 7.91669Z" stroke="#9CA3AF" stroke-width="1.33333" stroke-linecap="round" stroke-linejoin="round"/>
</svg>
